# xmcd
#
# Track frame offsets:
#	150
#	14245
#	28449
#	40722
#	53073
#	64790
#	77388
#	92681
#	108346
#	123993
#	139835
#	153990
#	169553
#
# Disc length: 2437 seconds
#
# Revision: 0
# Processed by: cddbd v1.5.2PL0 Copyright (c) Steve Scherf et al.
# Submitted via: audiograbber 1.83.01
#
DISCID=a409830d
DTITLE=Woody Guthrie - Dusty Bowl Ballads
DYEAR=2004
DGENRE=Classic Folk
TTITLE0=Dust Bowl Refugee
TTITLE1=Pretty Boy Floyd
TTITLE2=Dust Pneumonia Blues
TTITLE3=Talkin´  Dust Bowl Blues
TTITLE4=Do Re Mi
TTITLE5=I Ain´t Got No Home In This World Anymore
TTITLE6=The Great  Dust Storm
TTITLE7=Dust Bowl Blues
TTITLE8=Tom Joad-Part 1
TTITLE9=Tom Joad- Part 2
TTITLE10=Dusty Old Dust
TTITLE11=Vigilante Man
TTITLE12=Dust Can´t Kill Me
EXTD=Digitally New Remastered
EXTT0=
EXTT1=
EXTT2=
EXTT3=
EXTT4=
EXTT5=
EXTT6=
EXTT7=
EXTT8=
EXTT9=
EXTT10=
EXTT11=
EXTT12=
PLAYORDER=
